<svg width="220" height="100" viewBox="0 0 220 100" fill="none" xmlns="http://www.w3.org/2000/svg">
<mask id="mask0_5_77" style="mask-type:luminance" maskUnits="userSpaceOnUse" x="10" y="22" width="200" height="57">
<path d="M10 78.55H210V22H10V78.55Z" fill="white"/>
</mask>
<g mask="url(#mask0_5_77)">
<path d="M106.293 66.2505H100.09C100.062 66.2505 100.046 66.2449 100.029 66.2255L94.6845 59.6977L89.3345 66.2255C89.3234 66.2449 89.3039 66.2505 89.2761 66.2505H84.3095C84.2789 66.2505 84.2567 66.2366 84.2345 66.2033C84.2261 66.1838 84.2261 66.1477 84.2456 66.1255L92.1178 56.456L84.3372 46.8783C84.315 46.8449 84.315 46.8171 84.3234 46.7866C84.3372 46.7699 84.3678 46.7421 84.3928 46.7421H90.5984C90.6178 46.7421 90.64 46.7533 90.6567 46.781L95.3456 52.5921L100.118 46.7783C100.132 46.7533 100.154 46.7421 100.176 46.7421H105.234C105.265 46.7421 105.296 46.7699 105.307 46.7866C105.321 46.8171 105.315 46.8505 105.296 46.8783L97.9095 55.7477L106.346 66.1255C106.368 66.1477 106.376 66.1838 106.359 66.2033C106.346 66.2366 106.318 66.2505 106.293 66.2505Z" fill="white"/>
<path d="M139.865 50.1815C137.118 50.1815 135.243 51.8482 134.706 54.7454H144.051V54.5593C144.051 52.2399 142.343 50.1815 139.865 50.1815ZM148.87 57.7177C148.856 57.7399 148.829 57.7538 148.804 57.7538H134.606C134.901 61.0593 137.048 62.9427 140.523 62.9427C142.662 62.9427 144.934 62.2121 148.145 60.5038C148.204 60.4704 148.262 60.5204 148.262 60.5815L148.256 64.9482C148.251 64.9843 148.234 65.0065 148.209 65.0149C145.223 66.2732 142.223 67.1315 139.865 67.1315C133.751 67.1315 129.32 62.676 129.32 56.5399C129.32 50.4038 133.751 45.9482 139.865 45.9482C145.443 45.9482 149.026 49.7065 149.026 54.876C149.026 55.7121 148.881 57.6565 148.87 57.7177Z" fill="white"/>
<path d="M177.711 42.715C175.969 42.715 174.552 41.3205 174.552 39.6039C174.552 37.8372 175.969 36.4066 177.711 36.4066C179.452 36.4066 180.872 37.8372 180.872 39.6039C180.872 41.3205 179.452 42.715 177.711 42.715ZM175.161 66.2511C175.111 66.2511 175.08 66.2205 175.08 66.1705V46.8233C175.08 46.7844 175.108 46.7539 175.141 46.7455H180.269C180.311 46.7539 180.333 46.7844 180.333 46.8233V66.1705C180.333 66.2205 180.3 66.2511 180.258 66.2511H175.161Z" fill="white"/>
<path d="M115.671 63.3371C114.746 63.3371 113.799 63.2066 112.71 62.9149L112.721 50.5038C113.996 50.0982 115.104 49.9066 116.202 49.9066C119.757 49.9066 122.143 52.5288 122.143 56.4232C122.143 60.6232 119.602 63.3371 115.671 63.3371ZM117.066 45.951C115.618 45.951 114.157 46.2149 112.624 46.7427H107.521C107.479 46.7427 107.449 46.7788 107.449 46.8232V78.551C108.991 78.3399 110.879 77.7899 112.713 76.4843L112.71 66.8344C113.968 67.0121 115.007 67.1316 116.01 67.1316C122.999 67.1316 127.521 62.9427 127.521 56.4566C127.521 50.2732 123.218 45.951 117.066 45.951Z" fill="white"/>
<path d="M165.824 61.7305C164.226 62.5694 162.799 62.9666 161.457 62.9666C158.293 62.9666 156.396 60.7305 156.396 56.986C156.396 52.6527 158.818 49.8499 162.563 49.8499C163.596 49.8499 164.601 50.1027 165.824 50.6555V61.7305ZM165.824 36.4999V46.6277C164.326 46.1999 163.007 46.0027 161.676 46.0027C155.596 46.0027 151.004 50.586 151.004 56.6749C151.004 62.736 155.054 67.1305 160.626 67.1305C162.557 67.1305 164.363 66.6472 166.488 65.5527L166.485 67.2999C167.888 67.0333 169.499 66.4722 171.088 65.3472V34.4277C169.526 34.636 167.676 35.1583 165.824 36.4999Z" fill="white"/>
<path d="M198.099 61.6922C196.554 62.5839 195.229 63.0117 194.046 63.0117C190.657 63.0117 188.627 60.7839 188.627 57.0255C188.627 52.7561 191.018 49.8922 194.574 49.8922C195.527 49.8922 196.682 50.2561 198.099 51.0061V61.6922ZM203.368 46.5089C203.368 46.3894 203.266 46.295 203.149 46.295L199.004 46.3005C198.882 46.3005 198.779 46.4061 198.779 46.5228V47.2283H198.674C196.76 46.3894 195.129 46.0033 193.521 46.0033C187.788 46.0033 183.293 50.7561 183.293 56.8478C183.293 63.0061 187.316 67.1339 193.302 67.1339C194.904 67.1339 196.957 67.0228 198.879 64.8117V67.3005C200.238 67.0117 201.841 66.4339 203.363 65.3394L203.368 46.5089Z" fill="white"/>
<path d="M70.1222 61.4093L82.9944 61.4038C82.7999 62.8427 82.3138 64.526 81.1972 66.2427H70.1527H67.9527H67.8055C66.1666 66.2427 64.8194 64.9732 64.6583 63.3677C64.6499 63.3427 64.6416 63.3205 64.6388 63.2982V50.1149V37.9121C64.6416 37.8927 64.6499 37.8649 64.6583 37.8482C64.8194 36.2399 66.1666 34.9649 67.8055 34.9649C67.8583 34.9649 67.9083 34.9705 67.9527 34.9705L82.9666 34.9677C82.7694 36.4038 82.2833 38.1316 81.1694 39.8427H70.1222V46.7538H81.0583C81.1027 46.7538 81.136 46.7843 81.136 46.8288V51.6232C81.136 51.6621 81.1027 51.6982 81.0583 51.6982H70.1222V61.4038V61.4093Z" fill="white"/>
<path d="M54.0089 66.6457C52.7367 66.6457 51.9505 65.6513 51.9505 64.4346C51.9505 63.1318 52.8505 62.2235 54.0089 62.2235C55.1561 62.2235 56.0533 63.1318 56.0533 64.4346C56.0533 65.7402 55.1561 66.6457 54.0089 66.6457ZM54.0089 61.9735C52.7061 61.9735 51.5922 62.9541 51.5922 64.4346C51.5922 65.8346 52.5978 66.8874 54.0089 66.8874C55.295 66.8874 56.4144 65.9124 56.4144 64.4346C56.4144 62.9541 55.295 61.9735 54.0089 61.9735Z" fill="white"/>
<path d="M53.4313 64.2324V63.3352H54.0369C54.3424 63.3352 54.7035 63.3824 54.7035 63.7547C54.7035 64.1963 54.3702 64.2324 53.9897 64.2324H53.4313ZM55.1508 63.813C55.1508 63.2269 54.7897 62.9769 54.0897 62.9769H52.9869V65.8852H53.4674V64.6408H53.9119L54.6647 65.8852H55.2063L54.3897 64.6074C54.8313 64.5547 55.1508 64.3408 55.1508 63.813Z" fill="white"/>
<path d="M207.601 49.9633C206.329 49.9633 205.537 48.9688 205.537 47.7522C205.537 46.4494 206.44 45.541 207.601 45.541C208.745 45.541 209.645 46.4494 209.645 47.7522C209.645 49.0577 208.745 49.9633 207.601 49.9633ZM207.601 45.291C206.298 45.291 205.184 46.2716 205.184 47.7522C205.184 49.1522 206.187 50.2049 207.601 50.2049C208.884 50.2049 210.001 49.2272 210.001 47.7522C210.001 46.2716 208.884 45.291 207.601 45.291Z" fill="white"/>
<path d="M207.021 47.5485V46.6541H207.626C207.932 46.6541 208.293 46.6985 208.293 47.0708C208.293 47.5152 207.957 47.5485 207.582 47.5485H207.021ZM208.74 47.1291C208.74 46.543 208.379 46.293 207.679 46.293H206.576V49.2013H207.051V47.9596H207.501L208.254 49.2013H208.793L207.979 47.9235C208.418 47.8735 208.74 47.6569 208.74 47.1291Z" fill="white"/>
<path d="M37.4048 39.8191L36.4714 37.1774L28.5548 26.5969L29.977 26.2441L43.627 38.0441L51.6603 35.7469C52.6048 35.5024 53.677 35.4497 54.4937 35.4552C51.9687 30.0108 47.3492 25.5413 41.2492 23.3691C29.1909 19.0719 15.9326 25.3719 11.6437 37.4358C10.3159 41.1663 9.99922 45.0163 10.5576 48.6774L29.802 41.9913L37.4048 39.8191Z" fill="white"/>
<path d="M55.3391 37.5404C54.6335 37.9987 53.5974 38.5987 52.5697 38.9293L44.5197 41.2265L39.1474 58.471L37.753 58.9237L38.8863 45.7543L38.253 43.0182L30.7085 45.171L10.7697 49.8654C12.3474 57.5404 17.7808 64.2237 25.7002 67.046C37.7613 71.3432 51.0141 65.0404 55.303 52.9848C57.153 47.7876 57.0335 42.3654 55.3391 37.5404Z" fill="white"/>
</g>
</svg>
