<svg width="220" height="100" viewBox="0 0 220 100" fill="none" xmlns="http://www.w3.org/2000/svg">
<path fill-rule="evenodd" clip-rule="evenodd" d="M151.544 77.3554C148.896 80.0536 145.249 81.5525 141.402 81.6023H106.478C98.5835 81.5525 92.1882 75.1574 92.1383 67.2632V32.4892C92.1383 28.6425 93.6372 24.9949 96.3352 22.247C98.9831 19.5487 102.631 18.0501 106.478 18H141.402C145.249 18 148.896 19.5487 151.594 22.247C154.242 24.9947 155.741 28.6423 155.741 32.4892V67.2131C155.741 71.0106 154.242 74.6575 151.544 77.3554ZM137.005 58.9696C132.358 60.7679 130.16 56.2714 131.509 51.7748L126.263 58.8198C125.514 59.9186 124.215 60.5183 122.866 60.4184C122.815 60.4184 120.767 60.1187 120.867 57.4705C120.917 56.1215 121.267 50.6758 121.717 48.6275C121.767 48.4774 121.617 48.2274 121.466 48.4774C119.963 51.1424 117.806 53.9711 116.352 55.8767C115.68 56.7576 115.159 57.4413 114.922 57.8203C114.472 58.6697 113.823 59.4194 113.073 60.0187C112.424 60.3685 111.674 60.4184 110.975 60.1688C110.225 59.819 109.775 58.9698 109.926 58.1705L111.275 49.0269C111.275 48.8773 111.224 48.8773 111.075 48.8773C110.725 48.8773 107.128 53.8236 105.179 57.2712L103.83 59.3697C103.53 59.8192 103.081 60.169 102.581 60.3186C102.032 60.4188 101.482 60.3689 100.982 60.069C100.233 59.5692 99.8332 58.62 100.083 57.721L103.78 42.1825C103.78 42.1324 103.78 41.8824 103.58 41.8824C103.048 41.8824 102.698 42.5148 102.317 43.2037C101.875 44.0022 101.391 44.8765 100.533 44.9302C100.133 44.9801 99.7332 44.83 99.3832 44.6303C98.2842 43.981 98.7839 42.3824 98.7839 42.3824C98.7839 42.3824 100.483 37.9355 102.731 36.8365C103.43 36.3866 104.28 36.137 105.079 36.137C105.092 36.1392 105.104 36.1415 105.117 36.1437C106.216 36.3429 107.867 36.6419 106.978 41.4829L105.829 47.878V48.5277C105.829 48.5277 106.128 48.7773 106.678 48.0279L113.872 38.2348C115.372 35.9867 117.22 37.1358 117.22 37.1358C118.419 37.6354 118.019 39.1341 118.019 39.1341C118.019 39.1341 114.522 49.926 114.522 50.9254C114.522 51.2752 114.822 51.3251 114.971 51.0755C115.311 50.578 115.731 49.9426 116.211 49.2193C117.849 46.7458 120.167 43.246 122.216 40.7329C123.415 39.2843 124.065 38.6349 125.414 38.7845C125.963 38.7845 126.463 39.0343 126.812 39.4838C127.162 39.8839 127.312 40.4334 127.262 40.9831C127.262 41.1967 127.225 41.3736 127.184 41.5767C127.176 41.6111 127.169 41.6462 127.162 41.6824C126.013 45.7295 125.164 49.8264 124.664 53.9736C124.664 53.9736 124.514 54.473 124.814 54.7231C125.113 54.9226 125.514 54.4232 125.514 54.4232C127.812 51.2754 129.96 48.0279 131.909 44.6303L134.907 38.5351C134.907 38.5351 136.205 35.7369 137.904 36.1866C137.904 36.1866 140.602 36.4362 139.253 39.3839C137.455 42.8319 136.105 46.4286 135.256 50.1758C134.956 51.2754 134.557 54.3232 136.455 54.3232C137.305 54.3232 138.404 53.6735 139.554 51.5749L147.098 38.135C147.597 37.4858 148.346 37.0861 149.146 37.0861C151.794 37.0861 150.495 39.7341 150.495 39.7341C147.397 44.93 142.051 56.0719 142.051 56.0719C140.353 59.9688 139.053 64.0157 138.204 68.1629C137.955 70.1614 138.104 72.1596 138.654 74.1082C139.403 77.2059 135.905 76.3565 135.905 76.3565C133.407 75.5071 133.407 72.1096 133.407 72.1096C133.407 67.5083 135.276 63.0734 136.629 59.8651C136.76 59.5548 136.886 59.256 137.005 58.9696Z" fill="white"/>
<path d="M23.9895 57.8201H19.9924V48.8769C20.0425 47.8776 19.8423 46.8782 19.393 46.029C18.9433 45.3793 18.144 44.9797 17.3444 45.0796C16.6449 45.0796 15.9954 45.2297 15.4459 45.5794C14.8461 45.9791 14.3467 46.5284 13.9972 47.1282V57.8199H10V41.5827H12.2481L13.7471 43.7807C14.1468 43.4309 14.5465 43.131 14.9461 42.8315C15.3458 42.5815 15.7454 42.382 16.1952 42.1819C16.6447 41.9819 17.0946 41.8321 17.5442 41.7323C17.9937 41.6324 18.4935 41.5827 18.9931 41.5827C19.5426 41.5827 20.0921 41.6322 20.5918 41.7822C20.9914 41.9323 21.3911 42.0819 21.7907 42.3315C22.0908 42.5815 22.3903 42.8814 22.6401 43.1813C22.94 43.5806 23.1399 43.9303 23.3399 44.3304C23.6396 44.0303 23.9893 43.6807 24.389 43.381C24.7886 43.0811 25.2382 42.7812 25.7378 42.5316C26.1875 42.232 26.6874 41.9819 27.2369 41.7822C27.8365 41.6322 28.4358 41.5322 29.0853 41.5322C29.8846 41.5322 30.6342 41.7323 31.3336 42.0819C31.983 42.4818 32.5327 42.9814 32.8825 43.5808C33.2822 44.3306 33.5819 45.08 33.7317 45.9292C33.9316 46.8784 34.0316 47.8281 34.0316 48.8272V57.8203H29.985V48.8771C30.0849 47.8778 29.885 46.8784 29.3856 46.0292C28.9359 45.3795 28.1862 44.9799 27.3869 45.0798C26.7375 45.0798 26.0878 45.2299 25.4882 45.5797C24.8888 45.9793 24.3391 46.4791 23.9895 47.1284" fill="white"/>
<path d="M47.0722 50.4256H43.525C42.7753 50.3757 42.076 50.5758 41.4263 50.9755C41.0267 51.3752 40.7769 51.9249 40.7769 52.5242C40.7769 53.0739 40.9768 53.5736 41.3765 53.9732C41.826 54.323 42.4256 54.5225 43.0252 54.4726C43.4747 54.4726 43.9246 54.423 44.3742 54.2729C44.7738 54.1729 45.1735 54.0229 45.5233 53.8234C45.873 53.5738 46.1727 53.3235 46.4227 53.0739C46.7226 52.7738 46.9224 52.4741 47.1223 52.1745M47.0722 56.0218C46.5225 56.5711 45.8234 57.0208 45.1236 57.3209C44.1744 57.6707 43.175 57.8702 42.1758 57.8203C41.4764 57.8702 40.727 57.7206 40.0773 57.4706C39.4777 57.2209 38.9282 56.8714 38.4286 56.4216C37.9789 55.9218 37.6293 55.3723 37.3795 54.7729C37.1297 54.1233 37.0297 53.4239 37.0297 52.7246C37.0297 49.7269 39.378 47.7781 43.1253 47.7781H47.1221V46.8786C47.1221 46.2792 46.7723 45.7798 46.2729 45.5298C45.4734 45.1798 44.5741 44.9801 43.6748 45.0299C42.6756 45.0299 41.6763 45.1798 40.727 45.3797C39.9776 45.5799 39.2279 45.8295 38.4787 46.1296L38.0292 42.7817C38.279 42.632 38.6288 42.5321 39.0783 42.3824C39.4779 42.2324 39.9778 42.1324 40.4275 41.9824C40.8768 41.8824 41.4766 41.7826 42.076 41.6825C42.6756 41.5829 43.3251 41.5829 43.9747 41.5829C45.8234 41.4322 47.7219 42.0324 49.1208 43.231C50.3698 44.5305 50.9694 46.2788 50.8694 48.0277V57.8201H48.0216L47.0722 56.0218Z" fill="white"/>
<path d="M69.6052 41.3327L63.16 49.4268L70.5046 57.7702H65.5084L58.7135 49.5267V57.7702H54.7664V35.5368H58.7135V49.5267L64.759 41.3327H69.6052Z" fill="white"/>
<path d="M78.4485 45.1794C77.9489 45.1794 77.4495 45.2297 76.9998 45.3793C76.6001 45.4793 76.2005 45.6794 75.9006 45.929C75.5508 46.1292 75.301 46.4284 75.1011 46.7784C74.9013 47.1282 74.7515 47.4778 74.6515 47.8776H81.6963C81.6963 47.5278 81.6464 47.1781 81.4964 46.8285C81.3964 46.5284 81.1466 46.2289 80.8968 45.9793C80.5971 45.7293 80.2473 45.5296 79.8977 45.3795C79.3979 45.2299 78.8985 45.1297 78.4485 45.1794ZM79.198 54.323C79.7976 54.323 80.447 54.2729 81.0466 54.1229C81.5963 54.0229 82.1458 53.8733 82.6454 53.6733C83.0952 53.5235 83.5447 53.3235 83.9446 53.0739C84.1445 52.974 84.3442 52.8239 84.5441 52.6743L85.2936 56.2213C84.4442 56.671 83.5447 57.0707 82.5956 57.3704C81.4961 57.6705 80.3473 57.8201 79.198 57.8201C77.9491 57.8201 76.6999 57.6204 75.5007 57.2207C74.5516 56.8712 73.6022 56.3213 72.8528 55.572C72.1031 54.8723 71.5536 53.9734 71.2041 53.0241C70.7545 52.0246 70.5546 50.9254 70.5045 49.7763C70.5045 48.727 70.6544 47.6775 71.0043 46.6784C71.3539 45.6794 71.8535 44.8298 72.5531 44.0305C73.2025 43.2815 74.0519 42.6813 75.0013 42.282C77.1494 41.4322 79.5974 41.4322 81.7459 42.282C82.6454 42.6318 83.3947 43.231 84.0443 43.9303C84.6439 44.6301 85.0934 45.4294 85.3933 46.2788C85.6429 47.1783 85.7932 48.127 85.7932 49.077C85.7932 49.3266 85.7932 49.6263 85.7932 49.9258C85.7431 50.2259 85.6932 50.5256 85.6429 50.7752H74.6012C74.6513 51.3249 74.8012 51.8245 75.051 52.2744C75.2509 52.724 75.6007 53.1236 76.0003 53.4235C76.4 53.7731 76.8497 54.0227 77.3992 54.1229C77.9489 54.323 78.5483 54.423 79.1978 54.423V54.323H79.198Z" fill="white"/>
<path d="M159.637 43.8807L164.934 37.4854H166.133V41.5322H170.68V45.0297H166.133V51.7247C166.133 52.0745 166.183 52.4741 166.283 52.8738C166.383 53.1238 166.533 53.3736 166.733 53.6232C166.933 53.7733 167.182 53.9233 167.432 53.9734C167.682 54.0732 167.932 54.1231 168.231 54.1231C168.681 54.1231 169.131 54.0732 169.531 53.9235C169.93 53.8735 170.28 53.7234 170.63 53.5738V57.1208C170.23 57.3209 169.781 57.4705 169.28 57.5705C167.882 57.8702 166.433 57.8201 165.084 57.4205C164.435 57.2207 163.885 56.8712 163.385 56.4214C162.986 55.9717 162.636 55.422 162.436 54.8228C162.236 54.1731 162.086 53.4237 162.136 52.7242V45.1297H159.538" fill="white"/>
<path d="M177.475 44.9298C178.074 43.9303 178.823 43.0813 179.773 42.4315C180.572 41.8321 181.572 41.532 182.621 41.5827C182.921 41.5322 183.22 41.5322 183.52 41.5827L184.07 41.6822C184.07 41.6822 183.97 42.5817 183.37 45.3795C183.071 45.3301 182.771 45.2795 182.471 45.3301C181.771 45.2795 181.122 45.4296 180.472 45.6796C179.873 45.9292 179.373 46.3289 178.974 46.8287C178.574 47.3281 178.224 47.9279 178.024 48.5772C177.825 49.3765 177.725 50.1758 177.725 50.9757V57.8203H173.728V41.5827H176.226" fill="white"/>
<path d="M202.006 45.1297C201.557 45.0798 201.107 45.1794 200.707 45.3298C200.308 45.4795 199.958 45.6794 199.607 45.929C199.308 46.1291 199.058 46.4284 198.808 46.7285C198.609 47.0286 198.409 47.3277 198.308 47.6775V52.2744C198.458 52.5741 198.658 52.8237 198.908 53.0737C199.158 53.3233 199.408 53.5233 199.707 53.723C200.057 53.9231 200.406 54.0728 200.757 54.1727C201.755 54.4225 202.805 54.3727 203.754 54.0225C204.204 53.7729 204.654 53.4732 204.954 53.0735C205.303 52.6739 205.553 52.174 205.703 51.6744C205.852 51.075 205.952 50.4254 206.003 49.7759C206.003 49.1763 205.903 48.5271 205.703 47.8772C205.553 47.3273 205.303 46.8281 204.954 46.3783C204.603 45.9787 204.204 45.6285 203.705 45.4288C203.205 45.179 202.705 45.0792 202.156 45.0792M203.105 41.5827C204.205 41.5322 205.253 41.7822 206.203 42.232C207.052 42.6811 207.752 43.2813 208.351 44.0806C208.901 44.8799 209.35 45.7794 209.6 46.7285C209.85 47.7278 210 48.7769 210 49.7763C210 50.8252 209.85 51.875 209.55 52.8738C209.301 53.8234 208.851 54.6726 208.252 55.422C207.652 56.1714 206.952 56.7712 206.103 57.1709C205.204 57.6204 204.154 57.8201 203.155 57.8201C202.156 57.8201 201.207 57.6705 200.308 57.3207C199.558 56.9705 198.858 56.521 198.309 55.8717V64.3154H194.312V41.5827H196.66L198.209 43.5311C198.808 42.9313 199.558 42.4315 200.407 42.0322C201.256 41.7321 202.156 41.5322 203.055 41.5827H203.105Z" fill="white"/>
<path d="M188.167 34.9372C187.018 34.9372 186.118 35.8367 186.118 36.9855C186.118 38.1344 187.018 39.0844 188.167 39.0844C189.315 39.0844 190.215 38.1346 190.215 36.9855C190.264 36.4358 190.015 35.9366 189.615 35.5368C189.265 35.1371 188.716 34.8875 188.167 34.8875M190.115 57.8201H186.118V41.5827H190.115V57.8201Z" fill="white"/>
</svg>
