<svg width="220" height="100" viewBox="0 0 220 100" fill="none" xmlns="http://www.w3.org/2000/svg">
<path fill-rule="evenodd" clip-rule="evenodd" d="M146.412 24H154.264V67.8092H146.412V24ZM210 42.457V35.6587H201.88V26.795H194.029V59.1092C194.029 62.0784 194.776 64.3412 196.249 65.8349C197.721 67.3298 200.015 68.0876 203.068 68.0876H210V61.2894H204.928C203.824 61.2894 203.033 61.0468 202.575 60.5679C202.154 60.1295 201.88 59.0223 201.88 57.7472V42.457H210ZM93.0751 59.2821L101.194 35.6577H109.443L97.7229 67.8096H88.4275L76.7073 35.6577H84.9564L93.0751 59.2821ZM181.23 51.7644C181.23 53.7999 180.921 55.5707 180.314 57.0275C179.71 58.4765 178.846 59.5874 177.744 60.3283C176.643 61.0693 175.288 61.4451 173.718 61.4451C171.473 61.4451 169.779 60.7073 168.685 59.253C167.577 57.7831 167.015 55.5555 167.015 52.6323V35.6586H159.164V53.5001C159.164 56.2783 159.51 58.6346 160.196 60.5029C160.883 62.3768 161.826 63.9011 162.998 65.0327C164.17 66.163 165.538 66.9794 167.065 67.46C168.584 67.9381 170.218 68.1803 171.922 68.1803C174.377 68.1803 176.409 67.735 177.96 66.8568C179.373 66.0534 180.559 65.1142 181.487 64.0609L182.19 67.809H189.082V35.6586H181.23V51.7644ZM134.409 37.3541C131.934 35.9821 128.996 35.2871 125.677 35.2871C122.398 35.2871 119.47 35.9821 116.975 37.3537C114.477 38.7287 112.515 40.6706 111.142 43.1252C109.77 45.5777 109.075 48.4844 109.075 51.7644C109.075 55.0042 109.77 57.8907 111.142 60.3431C112.514 62.7969 114.477 64.7384 116.975 66.1132C119.47 67.4849 122.398 68.1799 125.677 68.1799C128.996 68.1799 131.934 67.4849 134.409 66.1128C136.886 64.7386 138.838 62.7973 140.211 60.3431C141.583 57.8893 142.278 55.0028 142.278 51.7644C142.278 48.4857 141.583 45.5789 140.211 43.1251C138.837 40.6702 136.886 38.7282 134.409 37.3541ZM130.261 60.3265C128.996 61.1502 127.453 61.5682 125.677 61.5682C123.941 61.5682 122.409 61.1504 121.123 60.3263C119.834 59.5012 118.824 58.3368 118.119 56.8647C117.411 55.3913 117.051 53.6756 117.051 51.7644C117.051 49.8139 117.411 48.0882 118.119 46.6348C118.824 45.1827 119.835 44.0178 121.124 43.172C122.41 42.3271 123.942 41.8988 125.677 41.8988C127.452 41.8988 128.994 42.3271 130.259 43.1711C131.528 44.0174 132.529 45.1827 133.236 46.6352C133.943 48.0921 134.302 49.8179 134.302 51.7645C134.302 53.6713 133.943 55.3876 133.236 56.8647C132.529 58.3371 131.529 59.5016 130.261 60.3265ZM18.1603 34.812H10V67.8096H18.1603V34.812ZM43.7507 36.6989C43.7507 29.697 38.049 24.0005 31.0402 24.0005H10V31.0473H30.0398C33.2116 31.0473 35.839 33.5392 35.8971 36.6018C35.9261 38.1353 35.3505 39.5827 34.2765 40.6771C33.2021 41.7718 31.7665 42.3751 30.2343 42.3751H22.4277C22.1506 42.3751 21.925 42.6003 21.925 42.8775V49.1405C21.925 49.2471 21.9579 49.3489 22.0198 49.4346L35.2648 67.8097H44.9603L31.6845 49.3843C38.3702 49.0487 43.7507 43.4313 43.7507 36.6989ZM68.843 37.167C66.4924 35.9194 63.7013 35.2871 60.5472 35.2871C57.3892 35.2871 54.5656 35.9826 52.1548 37.355C49.7399 38.7287 47.8401 40.671 46.5084 43.1269C45.178 45.5772 44.5037 48.5043 44.5037 51.8272C44.5037 55.0658 45.1884 57.9513 46.5396 60.4041C47.8937 62.8626 49.8469 64.7941 52.3439 66.1448C54.8362 67.4956 57.8259 68.1803 61.2288 68.1803C63.9285 68.1803 66.3529 67.6746 68.4346 66.6762C70.5168 65.6754 72.2166 64.3126 73.4872 62.6253C74.6942 61.0217 75.5085 59.208 75.9068 57.235L75.9497 57.0245H68.141L68.1041 57.151C67.6742 58.6226 66.84 59.7853 65.6239 60.6078C64.3187 61.4921 62.7155 61.9407 60.8581 61.9407C59.2839 61.9407 57.8622 61.6034 56.6327 60.9382C55.4092 60.2768 54.4525 59.3311 53.79 58.1262C53.1248 56.9172 52.7462 55.4624 52.6653 53.8112V53.553H76.2523L76.2787 53.4089C76.361 52.9563 76.4139 52.4899 76.4368 52.0209C76.4563 51.5639 76.4676 51.1075 76.4676 50.6468C76.4255 47.5317 75.7292 44.7917 74.3984 42.502C73.0624 40.2097 71.1933 38.4146 68.843 37.167ZM65.9818 43.2217C67.3234 44.3508 68.158 45.9553 68.464 47.9938H52.9365C53.1139 46.6711 53.5531 45.5256 54.243 44.5859C54.9667 43.6003 55.8938 42.8259 56.999 42.2842C58.1054 41.7407 59.3202 41.4649 60.6091 41.4649C62.7878 41.4647 64.5955 42.0559 65.9818 43.2217Z" fill="white"/>
</svg>
