<svg width="84" height="42" viewBox="0 0 84 42" fill="none" xmlns="http://www.w3.org/2000/svg">
<path fill-rule="evenodd" clip-rule="evenodd" d="M49.9412 23.1627C48.9372 24.7872 47.3307 26.1187 45.5653 26.43C43.0954 26.8655 41.7549 25.8285 41.4118 23.8826C40.9961 21.5249 42.2557 17.9458 43.2885 15.4871C43.3535 15.3077 43.417 15.1346 43.4776 14.9694C43.8765 13.8819 44.1502 13.1358 43.9228 13.1759C43.586 13.2352 40.4465 16.2197 39.0306 19.7878C38.1277 22.1079 37.2358 24.9276 36.7336 27.3313C36.553 28.0577 36.0114 28.2689 35.4634 27.7868C35.1848 27.5538 34.9124 27.2912 34.7111 26.9061C33.588 27.9913 32.1618 28.7287 30.6052 29.0679C28.5347 29.5045 26.362 29.3616 24.7109 27.6361C23.7115 29.2735 22.111 30.6428 20.3865 30.9469C18.1786 31.3362 16.8645 30.4489 16.4179 28.7912C15.3963 30.4377 13.9168 31.8947 12.0083 32.2312C10.0997 32.5678 9.10049 31.2777 8.8168 29.6685C8.67159 28.8452 8.66952 27.9581 8.84799 27.0005C9.25558 24.4978 10.5042 20.419 12.2504 16.754C12.6247 16.0321 13.3115 15.9881 13.8595 16.4703C14.3636 16.9216 14.6255 17.5314 14.7245 18.0928C14.9022 19.1013 14.1136 21.5307 13.3245 23.9612L13.3243 23.9617L13.3239 23.9629C12.9127 25.2294 12.5015 26.4962 12.2268 27.5623C11.8172 29.178 11.9491 30.5825 12.7724 30.4373C13.7454 30.2657 15.2801 27.3713 16.6607 24.0409C17.3802 22.2214 17.8804 20.6661 18.3111 19.3266L18.312 19.3239L18.3125 19.322C18.8236 17.7322 19.237 16.4465 19.8032 15.3837C20.2017 14.5803 20.7741 14.325 21.3353 14.882C21.8019 15.34 22.0946 15.9057 22.2398 16.729C22.4641 18.0014 21.9686 19.7866 21.0415 22.188C20.2664 24.1383 19.2556 26.9404 19.513 28.3999C19.6317 29.0734 19.9223 29.4081 20.4088 29.3223C21.3773 29.1515 22.4801 27.3196 23.3601 25.2852C23.321 25.1392 23.2882 24.992 23.2623 24.8448C23.0644 23.7221 23.2472 22.5708 23.9452 21.7146C24.5814 20.9465 25.1757 21.0346 25.4464 21.913C26.3712 19.9364 27.3379 17.7594 28.0271 15.9787C27.9392 14.6051 28.2366 13.6651 28.9719 12.8024C29.4783 12.1729 30.1057 11.7921 30.6671 11.6932C31.6775 11.515 32.0472 12.2987 31.2236 14.4118C31.2653 14.8675 31.3401 15.5103 31.4259 15.9968C31.6568 17.306 31.9961 18.54 32.3147 19.6984C32.6427 20.8906 32.9485 22.0028 33.0913 23.0345C33.2188 23.9766 33.2165 25.0575 32.95 25.9534C33.5849 25.3331 34.1048 24.6905 34.5139 23.9805C34.5271 23.9023 34.5415 23.8224 34.557 23.7407C35.3611 19.5474 40.5602 5.70424 42.9052 1.27779C43.372 0.423753 43.9597 0.474473 44.4285 1.16353C44.6882 1.54219 44.8863 2.0089 44.9787 2.53282C45.1568 3.54323 44.9519 5.00704 44.3309 6.73717C43.8002 8.10408 42.0937 11.9935 41.8118 12.5834C42.7893 11.5622 44.0199 10.8821 44.731 10.7568C45.8162 10.5654 47.106 11.5341 47.3634 12.9936C47.4558 13.5176 47.4359 14.0613 47.2288 14.638C46.7851 15.9052 46.4157 16.9456 46.1099 17.8068L46.1098 17.8073C45.4432 19.6849 45.0792 20.7103 44.9056 21.3758C44.714 22.2584 44.7028 23.0707 44.8084 23.6695C44.947 24.4554 45.2199 24.9089 45.7438 24.8165C47.0536 24.5855 48.5685 21.5788 49.2887 19.098C49.322 18.9736 49.3731 18.8672 49.4368 18.7815C49.5958 17.8218 49.9065 16.796 50.3924 15.7394C52.6273 10.9079 55.3617 8.68935 57.3451 8.33962C58.6175 8.11525 59.5155 8.61287 60.0172 9.48906C60.184 9.06819 60.3399 8.71971 60.4527 8.46767C60.4845 8.39678 60.5128 8.33351 60.537 8.27843C60.9178 7.59389 61.4088 7.31438 61.9876 7.75252C62.4785 8.12901 62.8592 8.75643 63.0044 9.57973C63.1231 10.2533 63.112 11.0656 62.8521 11.9989C62.6804 12.6894 62.4407 13.3455 62.1922 14.0253L62.1122 14.2445C62.0868 14.3143 62.0614 14.3844 62.036 14.455C61.9439 14.7105 61.8523 14.9708 61.7642 15.239C61.6543 15.552 61.5401 15.8657 61.4268 16.1767L61.4215 16.1912L61.4159 16.2065L61.4138 16.2122C61.0551 17.1966 60.7069 18.1521 60.531 18.9679C60.3768 19.8439 60.2534 20.676 60.3458 21.1999C60.4514 21.7987 60.6979 22.1025 61.0655 21.9991C63.1964 21.3918 65.4754 16.5911 66.2665 11.011C65.3706 10.7445 64.9657 10.1986 64.8336 9.45009C64.4972 7.54155 66.3357 4.40056 67.52 4.11458C68.2992 3.93858 68.7658 4.3965 68.911 5.2198C69.0628 6.08052 68.9922 7.21199 68.8357 8.51293C69.8374 8.06618 70.9359 7.29369 71.8892 6.35387C72.5144 5.74202 72.8689 5.56377 73.4918 6.03273C74.1146 6.50166 74.8476 7.37569 75.0191 8.34868C75.0984 8.79775 75.0036 9.35466 74.7218 9.94457C73.4051 12.106 71.9892 15.0181 71.7138 16.9574C71.6257 17.5518 71.6564 18.1637 71.7422 18.6502C71.9072 19.5858 72.3121 20.1318 72.8801 20.0702C74.2097 19.9515 75.8698 17.1121 76.5857 14.1691C76.742 13.5241 77.3848 13.4494 77.8162 14.145C78.1199 14.5545 78.4103 15.5452 78.146 16.6722C77.5447 19.1705 75.1406 21.2922 72.9195 21.6067C70.5112 21.9542 68.9111 20.5385 68.5283 18.368C68.4228 17.7692 68.4097 17.0384 68.4781 16.3318C68.7094 14.3617 69.9909 11.782 71.1469 9.80318C70.2157 10.4304 69.3505 10.7759 68.5338 10.9585C67.6107 16.4462 65.1753 22.5478 61.1864 23.5598C59.2602 24.0152 57.8977 23.2908 57.3344 21.8467C56.3921 23.2862 55.0733 24.5605 53.4641 24.8443C51.8579 25.1275 50.6328 24.4561 49.9412 23.1627ZM58.2715 10.53C58.4212 10.5036 58.5356 10.715 58.6214 11.2015C58.793 12.1745 58.4427 14.1269 57.4627 16.885C56.1965 20.4267 54.7829 22.9139 53.548 23.1317C53.2486 23.1845 53.0506 22.7178 52.9384 22.0816C52.714 20.8092 52.9521 18.8765 53.758 16.8823C55.1871 13.3891 57.2611 10.7082 58.2715 10.53ZM29.0227 27.5333C29.8086 27.3948 29.8155 25.4643 29.3866 23.0318C29.1754 21.8342 28.9268 20.6433 28.6738 19.6461C28.0264 21.2265 27.2623 23.0205 26.4234 24.8276C27.1826 26.5073 28.1994 27.6785 29.0227 27.5333ZM2.29019 31.4753C2.21102 31.0262 2.18691 30.4516 2.25082 29.9388C2.6387 26.6677 5.07882 18.4045 7.47463 12.7343L7.37094 12.7672L7.36965 12.7676C6.86099 12.9292 6.38229 13.0813 5.89187 13.1677C3.45938 13.5966 1.69845 13.0196 1.02944 11.6327C0.831385 11.166 1.09115 10.8887 1.61508 10.7963C3.40713 10.4804 5.9728 9.7123 8.27938 9.02181L8.28066 9.02144C10.1643 8.45754 11.8752 7.94536 12.8509 7.77333C14.5723 7.4698 16.2232 7.64174 17.0617 9.11452C17.328 9.5306 17.2575 10.0061 16.3836 10.083C14.7414 10.1796 12.6303 10.8991 10.6688 11.5923C10.9438 12.9329 10.2413 15.2948 9.12704 18.3852C7.80129 22.2461 5.98446 27.6984 4.67837 32.9835C4.49777 33.7099 4.05532 33.8265 3.43899 33.3949C2.7853 32.97 2.45516 32.4108 2.29019 31.4753ZM3.42111 36.057C2.0516 36.3076 1.09646 37.562 1.2225 38.9485C1.36959 40.5661 2.90518 41.6857 4.4902 41.3312L74.2274 25.7321C74.2274 25.7321 73.4997 26.0002 77.4998 25.0001C80.5239 24.244 81.5476 20.9163 82.2992 18.4731C82.5418 17.6845 82.756 16.988 83 16.5C84 14.5 81 16 81 16C80.7625 16.475 80.5449 16.9173 80.3422 17.3294C78.4108 21.2547 77.8275 22.4401 74.2274 23.099L3.42111 36.057Z" fill="white"/>
</svg>
