<svg width="79" height="27" viewBox="0 0 79 27" fill="none" xmlns="http://www.w3.org/2000/svg">
<path d="M0.406 24.062C0.406 23.606 0.482 23.036 0.634 22.542C1.584 19.388 5.422 11.674 8.766 6.506C8.196 6.582 7.664 6.658 7.132 6.658C4.662 6.658 3.028 5.784 2.61 4.302C2.496 3.808 2.8 3.58 3.332 3.58C6.638 3.58 12.718 2.554 14.922 2.554C16.67 2.554 18.266 3.01 18.836 4.606C19.026 5.062 18.874 5.518 18 5.442C16.366 5.252 14.162 5.594 12.11 5.936C12.148 7.304 11.046 9.508 9.412 12.358C7.436 15.93 4.7 20.984 2.496 25.962C2.192 26.646 1.736 26.684 1.204 26.152C0.634 25.62 0.406 25.012 0.406 24.062ZM24.2471 22.58C23.1451 24.746 20.6751 26.684 18.3191 26.684C16.0771 26.684 14.9371 25.582 14.7851 23.872C13.4931 25.316 11.7831 26.494 9.84514 26.494C7.90714 26.494 7.14714 25.05 7.14714 23.416C7.14714 22.58 7.29914 21.706 7.64114 20.794C8.47714 18.4 10.4151 14.6 12.7711 11.294C13.2651 10.648 13.9491 10.724 14.4051 11.294C14.8231 11.826 14.9751 12.472 14.9751 13.042C14.9751 14.6 12.2011 19.008 10.8711 21.934C10.1871 23.454 10.0731 24.86 10.9091 24.86C11.8971 24.86 13.9111 22.276 15.8491 19.236C18.0911 15.588 19.0791 13.004 20.4471 11.256C20.9791 10.534 21.5871 10.382 22.0431 11.028C22.4231 11.56 22.6131 12.168 22.6131 13.004C22.6131 14.296 21.8151 15.968 20.4851 18.172C19.3831 19.958 17.9011 22.542 17.9011 24.024C17.9011 24.708 18.1291 25.088 18.6231 25.088C19.8771 25.088 21.8151 22.466 23.1831 20.072C23.5631 19.426 24.2091 19.312 24.5131 20.034C24.6651 20.376 24.8171 21.478 24.2471 22.58ZM27.4169 24.822C28.2149 24.822 28.5569 22.922 28.5569 20.452C28.5569 19.236 28.5189 18.02 28.4429 16.994C27.5309 18.438 26.4669 20.072 25.3269 21.706C25.7829 23.492 26.5809 24.822 27.4169 24.822ZM22.2109 21.174C22.2109 20.034 22.5909 18.932 23.4269 18.21C24.1869 17.564 24.7569 17.754 24.8709 18.666C26.1249 16.88 27.4549 14.904 28.4429 13.27C28.5949 11.902 29.0509 11.028 29.9249 10.306C30.5329 9.774 31.2169 9.508 31.7869 9.508C32.8129 9.508 33.0409 10.344 31.8629 12.282C31.8249 12.738 31.7869 13.384 31.7869 13.878C31.7869 16.576 32.2809 19.046 32.2049 21.098C32.1669 22.048 31.9769 23.112 31.5589 23.948C33.1169 22.884 34.1809 21.63 34.8649 19.768C35.2069 18.894 35.7769 19.16 36.0429 19.768C36.2329 20.148 36.3469 21.212 35.6629 22.39C34.2189 25.05 31.5589 26.494 28.7089 26.608C26.4289 26.684 24.1489 26.076 22.8569 23.682C22.4389 22.96 22.2109 22.048 22.2109 21.174ZM49.9037 22.504C48.8017 24.708 46.3317 26.608 43.8997 26.608C41.3917 26.608 40.2517 25.354 40.2517 23.378C40.2517 20.984 42.1137 17.678 43.5577 15.436C44.2797 14.182 44.8497 13.27 44.5837 13.27C44.2417 13.27 40.6317 15.664 38.6177 18.932C37.3257 21.06 35.9577 23.682 35.0457 25.962C34.7417 26.646 34.1717 26.76 33.7157 26.19C33.1077 25.468 32.5757 24.556 33.5257 22.048C35.0457 18.058 42.5697 5.328 45.6477 1.376C46.2557 0.615998 46.8257 0.767999 47.1677 1.528C47.3577 1.946 47.4717 2.44 47.4717 2.972C47.4717 3.998 47.0157 5.404 46.1037 7C45.3437 8.254 42.9877 11.788 42.6077 12.32C43.7477 11.484 45.0777 11.028 45.7997 11.028C46.9017 11.028 48.0037 12.206 48.0037 13.688C48.0037 14.22 47.8897 14.752 47.5857 15.284C45.4957 19.008 44.5457 20.604 44.1277 21.516C43.7857 22.352 43.6337 23.15 43.6337 23.758C43.6337 24.556 43.8237 25.05 44.3557 25.05C45.6857 25.05 47.6997 22.352 48.8397 20.034C49.1057 19.464 49.7137 19.388 50.0177 20.034C50.2077 20.49 50.4737 21.364 49.9037 22.504ZM69.2059 15.36C67.3439 20.604 63.8859 26.19 59.7819 26.494C57.8059 26.608 56.5899 25.658 56.2859 24.138C55.1079 25.392 53.5879 26.418 51.9539 26.418C49.7499 26.418 48.5339 24.822 48.5339 22.504C48.5339 20.87 49.1419 18.894 50.5099 16.918C53.5499 12.548 56.6279 10.838 58.6419 10.838C59.9339 10.838 60.7319 11.484 61.0739 12.434C61.3779 11.94 61.6439 11.56 61.7959 11.332C62.2899 10.724 62.8219 10.534 63.3159 11.066C63.7339 11.522 63.9999 12.206 63.9999 13.042C63.9999 13.726 63.8479 14.524 63.4299 15.398C62.9739 16.424 62.3659 17.336 61.7959 18.4C61.1119 19.616 60.3519 20.832 59.9339 21.858C59.6299 22.694 59.3639 23.492 59.3639 24.024C59.3639 24.632 59.5539 24.974 59.9339 24.936C62.1379 24.708 65.2159 20.376 66.9639 15.018C66.1279 14.6 65.8239 13.992 65.8239 13.232C65.8239 11.294 68.1799 8.52 69.3959 8.444C70.1939 8.406 70.5739 8.938 70.5739 9.774C70.5739 10.648 70.3079 11.75 69.9279 13.004C70.9919 12.738 72.2079 12.168 73.3099 11.408C74.0319 10.914 74.4119 10.8 74.9439 11.37C75.4759 11.94 76.0459 12.928 76.0459 13.916C76.0459 14.372 75.8559 14.904 75.4759 15.436C73.8039 17.336 71.9039 19.958 71.2959 21.82C71.1059 22.39 71.0299 22.998 71.0299 23.492C71.0299 24.442 71.3339 25.05 71.9039 25.088C73.2339 25.202 75.3619 22.694 76.5779 19.92C76.8439 19.312 77.4899 19.35 77.7939 20.11C78.0219 20.566 78.1359 21.592 77.6799 22.656C76.6539 25.012 73.9179 26.684 71.6759 26.608C69.2439 26.532 67.9139 24.86 67.9139 22.656C67.9139 22.048 68.0279 21.326 68.2179 20.642C68.7879 18.742 70.4979 16.424 71.9799 14.676C70.9539 15.132 70.0419 15.322 69.2059 15.36ZM59.4019 13.878C59.4019 13.384 59.3259 13.156 59.1739 13.156C58.1479 13.156 55.6399 15.436 53.6259 18.628C52.4859 20.452 51.9159 22.314 51.9159 23.606C51.9159 24.252 52.0299 24.746 52.3339 24.746C53.5879 24.746 55.4119 22.542 57.2739 19.274C58.7179 16.728 59.4019 14.866 59.4019 13.878Z" fill="white"/>
</svg>
