<svg width="83" height="41" viewBox="0 0 83 41" fill="none" xmlns="http://www.w3.org/2000/svg">
<path fill-rule="evenodd" clip-rule="evenodd" d="M48.9781 22.521C47.9741 24.1454 46.3676 25.4769 44.6022 25.7883C42.1323 26.2238 40.7918 25.1868 40.4488 23.2408C40.033 20.8832 41.2926 17.3041 42.3254 14.8454C42.3905 14.6659 42.4539 14.4928 42.5146 14.3276C42.9134 13.2402 43.1871 12.494 42.9597 12.5341C42.6229 12.5935 39.4834 15.578 38.0675 19.1461C37.1646 21.4661 36.2727 24.2858 35.7705 26.6895C35.5899 27.4159 35.0484 27.6272 34.5003 27.145C34.2217 26.9121 33.9493 26.6495 33.748 26.2644C32.6249 27.3495 31.1987 28.087 29.6421 28.4261C27.5716 28.8628 25.399 28.7199 23.7478 26.9943C22.7484 28.6318 21.1479 30.001 19.4234 30.3051C17.2155 30.6944 15.9015 29.8071 15.4549 28.1495C14.4333 29.7959 12.9538 31.2529 11.0452 31.5895C9.13662 31.926 8.13742 30.6359 7.85372 29.0268C7.70852 28.2034 7.70645 27.3163 7.88491 26.3588C8.29251 23.856 9.54116 19.7772 11.2873 16.1123C11.6616 15.3903 12.3484 15.3464 12.8964 15.8286C13.4005 16.2799 13.6624 16.8897 13.7614 17.451C13.9392 18.4596 13.1505 20.889 12.3614 23.3195L12.3612 23.3199L12.3609 23.3211C11.9497 24.5877 11.5384 25.8544 11.2638 26.9206C10.8541 28.5363 10.986 29.9407 11.8093 29.7955C12.7823 29.624 14.317 26.7295 15.6977 23.3992C16.4171 21.5796 16.9173 20.0243 17.348 18.6848L17.3489 18.6822L17.3495 18.6803C17.8606 17.0905 18.2739 15.8048 18.8401 14.742C19.2386 13.9386 19.811 13.6833 20.3722 14.2403C20.8388 14.6982 21.1316 15.264 21.2767 16.0873C21.5011 17.3597 21.0055 19.1448 20.0785 21.5463C19.3033 23.4965 18.2926 26.2986 18.5499 27.7581C18.6687 28.4317 18.9592 28.7663 19.4457 28.6806C20.4142 28.5098 21.517 26.6778 22.3971 24.6435C22.3579 24.4975 22.3252 24.3503 22.2992 24.203C22.1013 23.0803 22.2841 21.9291 22.9821 21.0729C23.6184 20.3047 24.2127 20.3929 24.4833 21.2712C25.4081 19.2946 26.3748 17.1177 27.0641 15.3369C26.9762 13.9633 27.2735 13.0234 28.0088 12.1606C28.5152 11.5311 29.1427 11.1504 29.704 11.0514C30.7144 10.8732 31.0841 11.6569 30.2605 13.7701C30.3023 14.2257 30.377 14.8685 30.4629 15.355C30.6937 16.6643 31.033 17.8983 31.3517 19.0566C31.6796 20.2489 31.9854 21.361 32.1282 22.3927C32.2558 23.3349 32.2534 24.4157 31.9869 25.3116C32.6218 24.6914 33.1418 24.0488 33.5508 23.3388C33.5641 23.2605 33.5785 23.1806 33.594 23.099C34.398 18.9056 39.5971 5.06249 41.9422 0.636034C42.409 -0.218001 42.9967 -0.167281 43.4654 0.521776C43.7251 0.900438 43.9232 1.36714 44.0156 1.89107C44.1938 2.90148 43.9888 4.36528 43.3678 6.09541C42.8371 7.46233 41.1306 11.3518 40.8487 11.9417C41.8263 10.9204 43.0569 10.2404 43.7679 10.115C44.8531 9.92366 46.143 10.8924 46.4003 12.3519C46.4927 12.8758 46.4728 13.4195 46.2658 13.9962C45.822 15.2634 45.4526 16.3039 45.1469 17.1651L45.1467 17.1655C44.4801 19.0431 44.1162 20.0686 43.9425 20.734C43.7509 21.6167 43.7398 22.429 43.8454 23.0277C43.9839 23.8136 44.2568 24.2671 44.7807 24.1747C46.0905 23.9438 47.6054 20.9371 48.3256 18.4563C48.359 18.3319 48.4101 18.2254 48.4737 18.1397C48.6328 17.18 48.9434 16.1543 49.4293 15.0976C51.6643 10.2661 54.3986 8.04759 56.382 7.69786C57.6544 7.4735 58.5524 7.97112 59.0542 8.84731C59.2209 8.42644 59.3769 8.07796 59.4897 7.82591C59.5214 7.75502 59.5497 7.69176 59.5739 7.63667C59.9547 6.95213 60.4457 6.67262 61.0246 7.11076C61.5154 7.48726 61.8961 8.11467 62.0413 8.93797C62.1601 9.61159 62.149 10.4238 61.8891 11.3572C61.7174 12.0477 61.4776 12.7037 61.2292 13.3836L61.1491 13.6027C61.1237 13.6726 61.0983 13.7427 61.0729 13.8132C60.9809 14.0687 60.8893 14.3291 60.8012 14.5973C60.6913 14.9103 60.577 15.224 60.4638 15.535L60.4585 15.5494L60.4528 15.5647L60.4508 15.5704C60.092 16.5548 59.7438 17.5104 59.568 18.3261C59.4137 19.2022 59.2904 20.0343 59.3827 20.5582C59.4883 21.1569 59.7348 21.4607 60.1024 21.3573C62.2334 20.7501 64.5124 15.9494 65.3034 10.3692C64.4075 10.1028 64.0026 9.55681 63.8706 8.80834C63.5341 6.8998 65.3726 3.75881 66.5569 3.47283C67.3362 3.29683 67.8028 3.75475 67.948 4.57805C68.0997 5.43877 68.0291 6.57024 67.8727 7.87117C68.8743 7.42442 69.9729 6.65193 70.9261 5.71211C71.5514 5.10027 71.9058 4.92201 72.5287 5.39098C73.1516 5.85991 73.8845 6.73393 74.0561 7.70693C74.1353 8.15599 74.0405 8.71291 73.7587 9.30281C72.442 11.4643 71.0262 14.3764 70.7508 16.3157C70.6626 16.91 70.6933 17.522 70.7791 18.0085C70.9441 18.944 71.349 19.49 71.917 19.4285C73.2466 19.3098 74.9068 16.4704 75.6226 13.5273C75.779 12.8824 76.4217 12.8076 76.8531 13.5033C77.1568 13.9128 77.4472 14.9034 77.183 16.0304C76.5816 18.5288 74.1775 20.6505 71.9564 20.965C69.5481 21.3124 67.948 19.8968 67.5653 17.7262C67.4597 17.1275 67.4466 16.3967 67.515 15.69C67.7464 13.72 69.0279 11.1402 70.1838 9.16142C69.2526 9.78868 68.3874 10.1341 67.5707 10.3167C66.6476 15.8044 64.2122 21.906 60.2233 22.918C58.2971 23.3735 56.9346 22.649 56.3713 21.2049C55.429 22.6444 54.1102 23.9188 52.501 24.2025C50.8949 24.4857 49.6697 23.8143 48.9781 22.521ZM57.3084 9.88826C57.4581 9.86186 57.5725 10.0732 57.6584 10.5597C57.8299 11.5327 57.4796 13.4852 56.4997 16.2432C55.2334 19.7849 53.8199 22.2722 52.5849 22.4899C52.2856 22.5427 52.0875 22.076 51.9753 21.4398C51.7509 20.1675 51.989 18.2348 52.7949 16.2405C54.224 12.7473 56.298 10.0664 57.3084 9.88826ZM28.0596 26.8916C28.8455 26.753 28.8524 24.8225 28.4235 22.39C28.2123 21.1925 27.9637 20.0016 27.7107 19.0044C27.0633 20.5848 26.2992 22.3787 25.4603 24.1858C26.2195 25.8655 27.2363 27.0368 28.0596 26.8916ZM1.32711 30.8335C1.24795 30.3844 1.22384 29.8099 1.28774 29.297C1.67562 26.026 4.11575 17.7627 6.51156 12.0925L6.40786 12.1255L6.40658 12.1258C5.89791 12.2875 5.41921 12.4395 4.9288 12.526C2.4963 12.9549 0.735376 12.3779 0.0663699 10.991C-0.131689 10.5243 0.128076 10.247 0.652002 10.1546C2.44406 9.83861 5.00973 9.07054 7.31631 8.38005L7.31759 8.37969C9.20126 7.81578 10.9121 7.30361 11.8878 7.13158C13.6092 6.82805 15.2602 6.99999 16.0987 8.47276C16.365 8.88884 16.2945 9.3643 15.4205 9.44124C13.7783 9.53786 11.6672 10.2574 9.70578 10.9505C9.98074 12.2911 9.27822 14.653 8.16397 17.7435C6.83822 21.6043 5.02139 27.0566 3.7153 32.3417C3.53469 33.0681 3.09225 33.1847 2.47592 32.7532C1.82223 32.3283 1.49209 31.7691 1.32711 30.8335ZM2.45803 35.4152C1.08853 35.6659 0.133386 36.9202 0.259424 38.3068C0.406519 39.9243 1.9421 41.044 3.52712 40.6894L73.2643 25.0903C73.2643 25.0903 72.5367 25.3585 76.5368 24.3584C79.5608 23.6023 80.5845 20.2746 81.3361 17.8314C81.5787 17.0427 81.7929 16.3463 82.037 15.8582C83.037 13.8582 80.037 15.3582 80.037 15.3582C79.7995 15.8332 79.5819 16.2755 79.3791 16.6876C77.4477 20.6129 76.8645 21.7984 73.2643 22.4572L2.45803 35.4152Z" fill="white"/>
</svg>
