<svg width="220" height="100" viewBox="0 0 220 100" fill="none" xmlns="http://www.w3.org/2000/svg">
<path fill-rule="evenodd" clip-rule="evenodd" d="M39.2437 34.9919L39.0591 40.8758L23.5923 57.557C30.0534 57.557 34.15 57.4946 36.5122 57.3645C35.8277 60.53 35.2708 63.1184 34.7099 66.9983C31.6029 66.738 26.7593 66.6731 21.913 66.6731C16.511 66.6731 11.7895 66.7371 8 66.9983L8.12641 61.0477L23.5923 44.4332C16.8215 44.4332 14.3362 44.4964 11.5423 44.5617C12.1615 41.5869 12.5971 38.2912 13.0316 34.9919C17.9384 35.1857 19.8639 35.2493 26.2621 35.2493C32.1637 35.2497 35.5163 35.1857 39.2437 34.9919ZM56.8239 33.2443C46.7586 33.2443 39.0591 42.167 39.0591 52.8388C39.0591 60.8557 43.7169 66.9983 52.7853 66.9983C62.9106 66.9983 70.5506 58.0739 70.5506 47.3389C70.5515 39.3904 66.0151 33.2443 56.8239 33.2443ZM53.7791 58.422C51.5424 58.422 50.2394 56.4149 50.2394 52.4713C50.2394 46.5872 52.6614 41.8685 55.6446 41.8685C57.817 41.8685 59.1216 43.8099 59.1216 47.816C59.1206 53.6348 56.7623 58.422 53.7791 58.422ZM199.093 32.8016C188.897 32.8016 181.095 41.8427 181.095 52.6485C181.095 60.7742 185.814 66.9983 195.002 66.9983C205.259 66.9983 213 57.9569 213 47.083C213.001 39.0263 208.41 32.8016 199.093 32.8016ZM195.816 58.388C193.578 58.388 192.276 56.3809 192.276 52.4369C192.276 46.5533 194.699 41.8354 197.681 41.8354C199.853 41.8354 201.159 43.7747 201.159 47.7816C201.158 53.6029 198.798 58.388 195.816 58.388ZM122.788 44.8846C123.597 39.3904 123.162 34.4102 117.014 34.4102C112.541 34.4102 107.696 38.1608 104.28 44.4332C105.026 39.2584 104.59 34.4102 98.5031 34.4102C93.907 34.4102 88.9375 38.3538 85.5202 44.8846C86.3901 40.6173 86.2047 35.7665 85.9554 34.7325C82.4157 35.315 79.3107 35.6373 74.9614 35.7666C75.0863 38.7421 74.8991 42.6185 74.3402 46.3076L72.9115 56.0049C72.3523 59.8216 71.7311 64.2183 71.1094 66.9993H82.6633C82.7265 65.3161 83.1619 62.6661 83.4715 60.3384L84.4656 53.6796C85.2726 49.345 88.7504 44.2394 91.421 44.2394C92.9737 44.2394 92.9134 45.7256 92.4778 48.5058L91.3597 56.0038C90.7984 59.8205 90.1793 64.2172 89.5571 66.9982H101.235C101.298 65.3151 101.67 62.665 101.98 60.3373L102.973 53.6787C103.782 49.3438 107.262 44.2382 109.931 44.2382C111.486 44.2382 111.424 45.6592 111.174 47.6L108.384 66.9973H119.041L122.788 44.8846ZM178.591 56.8469L177.349 64.4777C175.422 65.5119 171.819 67 167.657 67C160.575 67 159.148 63.2494 160.265 55.2963L162.068 42.4934H158.583L159.566 34.2058L163.372 34.0239L164.8 28.0106L175.545 24L174.179 34.023H181.571C181.324 35.0571 180.452 40.7491 180.207 42.4925H172.997L171.383 54.3254C170.948 57.3645 171.197 58.4643 173.307 58.4643C174.863 58.4627 177.16 57.557 178.591 56.8469ZM137.833 60.969C141.743 60.4881 144.435 56.7478 145.082 53.0159L145.191 52.0156C143.511 51.6435 141.082 51.3592 138.726 51.6446C136.484 51.9155 134.618 52.8408 133.614 54.1801C132.857 55.1416 132.476 56.2924 132.645 57.6639C132.9 59.7181 135.191 61.2886 137.833 60.969ZM134.505 66.8789C128.985 67.5517 125.35 65.3781 124.259 60.4334C123.574 57.3222 124.524 53.7782 126.186 51.6637C128.413 48.8981 132.04 47.1229 136.468 46.5866C140.031 46.1481 143.033 46.3644 145.84 46.8917L145.957 46.4141C146.037 45.6505 146.118 44.8878 146.006 43.9748C145.715 41.6313 143.852 40.2349 139.252 40.7962C136.148 41.1745 133.195 42.287 130.902 43.5526L128.672 36.866C131.78 35.0954 135.697 33.7479 140.18 33.2017C148.743 32.1598 154.761 34.8689 155.531 41.098C155.735 42.7546 155.76 44.5102 155.549 46.1031C154.449 53.8047 153.745 59.6001 153.436 63.4843C153.386 64.0854 153.39 65.1187 153.444 66.5832L142.818 66.5734C143.044 65.9666 143.247 65.1433 143.427 64.111C143.547 63.4313 143.632 62.5749 143.685 61.5365C141.439 64.5943 138.352 66.4103 134.505 66.8789Z" fill="white"/>
</svg>
